<?xml version="1.0" standalone="no"?>
<!DOCTYPE svg PUBLIC "-//W3C//DTD SVG 20010904//EN"
 "http://www.w3.org/TR/2001/REC-SVG-20010904/DTD/svg10.dtd">
<svg version="1.0" xmlns="http://www.w3.org/2000/svg"
 width="500.000000pt" height="500.000000pt" viewBox="0 0 500.000000 500.000000"
 preserveAspectRatio="xMidYMid meet">
<metadata>
Created by potrace 1.11, written by Peter Selinger 2001-2013
</metadata>
<g transform="translate(0.000000,500.000000) scale(0.100000,-0.100000)"
fill="#000000" stroke="none">
<path d="M1750 3546 c-231 -48 -409 -144 -571 -305 -91 -92 -159 -186 -211
-293 -4 -10 -13 -28 -19 -40 -52 -102 -89 -282 -90 -439 l-1 -129 -356 -1
c-197 0 -381 0 -410 1 -51 1 -52 1 -43 -22 25 -65 145 -224 236 -311 162 -156
351 -206 508 -134 52 24 56 24 123 11 38 -7 123 -14 189 -14 156 0 211 7 340
40 222 59 452 171 722 351 l102 69 73 -69 c222 -208 396 -324 510 -341 4 -1
22 -6 40 -11 50 -15 160 -12 257 7 l87 17 41 -26 c72 -45 236 -107 324 -121
35 -6 41 -13 100 -118 65 -114 127 -186 183 -215 18 -9 61 -17 102 -19 163 -6
280 99 434 391 71 134 127 228 148 249 9 10 85 60 167 111 83 52 155 98 161
104 6 5 25 16 42 25 18 9 32 18 32 21 0 18 -46 197 -70 270 -139 435 -347 656
-584 621 -99 -15 -196 -106 -347 -326 -127 -185 -201 -246 -292 -238 -43 4
-67 14 -142 65 -111 76 -149 92 -205 87 -47 -5 -70 -17 -140 -75 -49 -40 -101
-69 -123 -69 -13 0 -21 22 -28 75 -5 35 -88 226 -122 280 -69 111 -95 144
-190 236 -119 117 -310 227 -457 264 -188 47 -362 54 -520 21z"/>
</g>
</svg>
